<svg xmlns="http://www.w3.org/2000/svg" width="30" height="30" viewBox="0 0 30 30"><defs><style>.a{fill:none;}.b{fill:#00478e;}</style></defs><g transform="translate(-6.824 -1.472)"><rect class="a" width="30" height="30" transform="translate(6.824 1.472)"/><g transform="translate(11.824 5.473)"><path class="b" d="M9.7,12.884l1.239-1.428a2.587,2.587,0,0,1,1.943-.9h8.185L20.533,13.2a.752.752,0,0,0,1.19.75l6.849-5.057a.746.746,0,0,0,0-1.21L21.723,2.625a.752.752,0,0,0-1.19.75l.534,2.637h-8.33A3.838,3.838,0,0,0,8.9,9.836V12.57A.46.46,0,0,0,9.7,12.884Z" transform="translate(-8.882 -2.473)"/><path class="b" d="M28.005,50.69l-1.239,1.428a2.587,2.587,0,0,1-1.943.9H16.639l.534-2.637a.752.752,0,0,0-1.19-.75L9.135,54.682a.746.746,0,0,0,0,1.21l6.825,5.057a.752.752,0,0,0,1.19-.75l-.51-2.637h8.33a3.838,3.838,0,0,0,3.837-3.823V51A.46.46,0,0,0,28.005,50.69Z" transform="translate(-8.825 -38.101)"/></g></g></svg>