<svg xmlns="http://www.w3.org/2000/svg" width="30" height="30" viewBox="0 0 30 30"><defs><style>.a{fill:none;}.b{fill:#00478e;}</style></defs><g transform="translate(-1182 -2918)"><rect class="a" width="30" height="30" transform="translate(1182 2918)"/><g transform="translate(2 3)"><path class="b" d="M20.908,15.336c-2.279-1.406-5.389-3.492-9.575-3.441C6.567,11.844,4,13.923,1.66,15.346.216,16.294.241,16.4.3,18.032c.017,1.033.587,1.467.985,2.377s.795,1.837.972,2.346h0v1.221h0v.031c.2,3.294,4.19,5.888,9.077,5.888S20.237,27.3,20.405,24V22.512c.184-.514.558-1.372.921-2.2s.962-1.484.947-2.275C22.293,16.355,22.316,16.1,20.908,15.336Zm-9.575,4.654a29.218,29.218,0,0,1,7.66,1.16l.108.031a.74.74,0,0,1,.294.118.489.489,0,0,1,.126.342v1.886H3.143V21.641c0-.276.288-.417.529-.488a27.017,27.017,0,0,1,7.66-1.162Z" transform="translate(1183.722 2909.106)"/><rect class="b" width="1.236" height="1.317" transform="translate(1192.236 2929.707)"/><rect class="b" width="1.236" height="1.317" transform="translate(1193.336 2930.876)"/><rect class="b" width="1.236" height="1.317" transform="translate(1194.436 2929.707)"/><rect class="b" width="1.236" height="1.317" transform="translate(1195.536 2930.876)"/><rect class="b" width="1.236" height="1.317" transform="translate(1196.636 2929.707)"/></g></g></svg>