<svg xmlns="http://www.w3.org/2000/svg" width="30" height="30" viewBox="0 0 30 30"><defs><style>.a{fill:none;}.b{fill:#00478e;}</style></defs><g transform="translate(-1183 -2828)"><rect class="a" width="30" height="30" transform="translate(1183 2828)"/><path class="b" d="M15.589,0H2.411A2.418,2.418,0,0,0,0,2.411V15.589A2.418,2.418,0,0,0,2.411,18H15.589A2.418,2.418,0,0,0,18,15.589V2.411A2.418,2.418,0,0,0,15.589,0ZM4.205,14.438h-1.5v-1.5h1.5Zm3.4,0h-1.5v-1.5h1.5Zm3.295,0H9.4v-1.5h1.5Zm3.348,0h-1.5v-1.5h1.5ZM8.732,10.3,6,7.565l-2.3,2.3L2.566,8.726,5.432,5.86,6,5.292l.568.568L8.732,8.024,13.6,3.155l1.136,1.136Z" transform="translate(1189 2834)"/></g></svg>