<svg xmlns="http://www.w3.org/2000/svg" width="50" height="50" viewBox="0 0 50 50"><defs><style>.a{fill:rgba(0,71,142,0.8);}.b{fill:#fff;}</style></defs><g transform="translate(-1347 -2657)"><circle class="a" cx="25" cy="25" r="25" transform="translate(1347 2657)"/><g transform="translate(2500.6 3147.9)"><path class="b" d="M29.971,17.73h-.978a11.812,11.812,0,0,0-23.218,0H4.829A2.432,2.432,0,0,0,2.4,20.122v4.007a2.354,2.354,0,0,0,.726,1.708,2.515,2.515,0,0,0,1.7.683H7.006A1.122,1.122,0,0,0,8.141,25.4V19.687a9.212,9.212,0,0,1,18.423,0v7.8a3.768,3.768,0,0,1-3.785,3.728H20.7a1.457,1.457,0,0,0-1.451-1.118H15.491a1.5,1.5,0,0,0-1.514,1.491v1.025A1.5,1.5,0,0,0,15.491,34.1h3.817a1.548,1.548,0,0,0,1.451-1.118h2.082a5.552,5.552,0,0,0,5.584-5.5v-.994h1.546a2.457,2.457,0,0,0,1.7-.683A2.354,2.354,0,0,0,32.4,24.1V20.122A2.432,2.432,0,0,0,29.971,17.73Z" transform="translate(-1146 -487)"/></g></g></svg>