<svg xmlns="http://www.w3.org/2000/svg" width="30" height="30" viewBox="0 0 30 30"><defs><style>.a{fill:none;}.b{fill:#00478e;fill-rule:evenodd;}</style></defs><g transform="translate(-1183 -3323)"><rect class="a" width="30" height="30" transform="translate(1183 3323)"/><g transform="translate(2152.001 3235.598)"><g transform="translate(-974 -872.362)"><path class="b" d="M11.057,964.765A1.061,1.061,0,0,0,10,965.829v1.529H25.642v-1.529a1.061,1.061,0,0,0-1.058-1.064H11.057Zm12.567.964h1.017a.536.536,0,0,1,.205.042.529.529,0,0,1,.172.116.537.537,0,0,1,.115.175.512.512,0,0,1,.041.2.554.554,0,0,1-.041.208.537.537,0,0,1-.115.174.483.483,0,0,1-.377.15H23.624a.483.483,0,0,1-.377-.15.537.537,0,0,1-.115-.174.554.554,0,0,1-.041-.208.512.512,0,0,1,.041-.2.537.537,0,0,1,.115-.175.533.533,0,0,1,.377-.158Z"/><path class="b" d="M10,978.519H25.64V979.7H16.419a2.127,2.127,0,0,0-2.105,2.13v7.123H11.056A1.063,1.063,0,0,1,10,987.887Z" transform="translate(-0.002 -10.096)"/><path class="b" d="M31.486,986.952a1.06,1.06,0,0,0-1.05,1.072v1.529H46.071v-1.529a1.06,1.06,0,0,0-1.05-1.072Zm12.575.972h1.017a.484.484,0,0,1,.377.15.536.536,0,0,1,.115.175.553.553,0,0,1,.041.208.512.512,0,0,1-.041.2.536.536,0,0,1-.115.175.533.533,0,0,1-.377.158H44.061a.538.538,0,0,1-.205-.042.53.53,0,0,1-.172-.116.536.536,0,0,1-.115-.175.512.512,0,0,1-.041-.2.553.553,0,0,1,.041-.208.536.536,0,0,1,.115-.175.484.484,0,0,1,.377-.15Z" transform="translate(-15.073 -16.286)"/><path class="b" d="M30.431,1000.72H46.068v9.368a1.06,1.06,0,0,1-1.053,1.069H31.486a1.063,1.063,0,0,1-1.055-1.069Z" transform="translate(-15.069 -26.392)"/></g></g></g></svg>