<svg xmlns="http://www.w3.org/2000/svg" width="30" height="30" viewBox="0 0 30 30"><defs><style>.a{fill:none;}.b{fill:#00478e;}</style></defs><g transform="translate(-325 -4314)"><rect class="a" width="30" height="30" transform="translate(325 4314)"/><g transform="translate(325 4317)"><g transform="translate(3.625 0)"><path class="b" d="M67.349,57.142a6,6,0,1,0,5.476,5.979A5.751,5.751,0,0,0,67.349,57.142Z" transform="translate(-61.873 -57.142)"/></g><g transform="translate(16.854 0.856)"><path class="b" d="M292.334,71.321H292.3a4.486,4.486,0,0,0-3.333,1.552,5.459,5.459,0,0,0,.058,7.2,4.484,4.484,0,0,0,3.319,1.495h.038a4.486,4.486,0,0,0,3.333-1.552,5.341,5.341,0,0,0,1.327-3.612A4.933,4.933,0,0,0,292.334,71.321Z" transform="translate(-287.637 -71.321)"/></g><g transform="translate(15.818 12.082)"><path class="b" d="M275.924,257.358h-.455a8.058,8.058,0,0,0-5.509,2.188,10.692,10.692,0,0,1,1.042.942,10.885,10.885,0,0,1,2.268,3.465,11.088,11.088,0,0,1,.819,3.671h10.054v-1.8A8.353,8.353,0,0,0,275.924,257.358Z" transform="translate(-269.96 -257.358)"/></g><g transform="translate(0 13.83)"><path class="b" d="M18.185,294.836a9.152,9.152,0,0,0-3.541-6.722,8.619,8.619,0,0,0-5.269-1.8H8.828A8.962,8.962,0,0,0,0,295.41v1.079H18.2V295.41Q18.2,295.121,18.185,294.836Z" transform="translate(0 -286.318)"/></g></g></g></svg>