<svg xmlns="http://www.w3.org/2000/svg" width="30" height="30" viewBox="0 0 30 30"><defs><style>.a{fill:#00478e;}</style></defs><path class="a" d="M29.123,21.094h-.937V1.758h.937a.879.879,0,0,0,0-1.758H.881a.879.879,0,1,0,0,1.758h.938V21.094H.881a.879.879,0,0,0,0,1.758H8.607l-1.49,6.06a.879.879,0,1,0,1.707.42l.729-2.964h10.9l.729,2.964a.879.879,0,1,0,1.707-.42l-1.49-6.06h7.726a.879.879,0,0,0,0-1.758ZM20.275,7.031a.879.879,0,1,1,0-1.758h3.516a.88.88,0,0,1,.879.879V9.668a.879.879,0,1,1-1.758,0V8.275l-7.288,7.288a.88.88,0,0,1-1.243,0l-2.894-2.895L6.835,17.321a.879.879,0,0,1-1.243-1.243L10.865,10.8a.88.88,0,0,1,1.243,0L15,13.7l6.667-6.667Zm-.257,17.578H9.985l.432-1.758h9.169Z" transform="translate(-0.002 0)"/></svg>