<svg xmlns="http://www.w3.org/2000/svg" width="30" height="30" viewBox="0 0 30 30"><defs><style>.a{fill:none;}.b{fill:#00478e;}</style></defs><g transform="translate(-1183 -2648)"><rect class="a" width="30" height="30" transform="translate(1183 2648)"/><g transform="translate(1188 2653)"><path class="b" d="M18.639,16.364H15.458a3.636,3.636,0,1,1,0-7.273h3.182a.454.454,0,0,0,.455-.455V7.273a1.814,1.814,0,0,0-1.673-1.8L14.81.91A1.8,1.8,0,0,0,12.342.245L3.393,5.455H1.821A1.82,1.82,0,0,0,0,7.273V18.182A1.82,1.82,0,0,0,1.821,20H17.276a1.82,1.82,0,0,0,1.818-1.818V16.819A.454.454,0,0,0,18.639,16.364ZM15.374,3.725l.99,1.73H12.4ZM5.2,5.455l7.6-4.424A.879.879,0,0,1,13.475.94a.891.891,0,0,1,.546.422v0L6.994,5.455Z" transform="translate(-0.003 0)"/><path class="b" d="M304.579,234.674H301.4a2.727,2.727,0,0,0,0,5.454h3.182a1.365,1.365,0,0,0,1.364-1.364v-2.727A1.365,1.365,0,0,0,304.579,234.674ZM301.4,238.31a.909.909,0,1,1,.909-.909A.91.91,0,0,1,301.4,238.31Z" transform="translate(-285.943 -224.674)"/></g></g></svg>