<svg xmlns="http://www.w3.org/2000/svg" width="30" height="30" viewBox="0 0 30 30"><defs><style>.a{fill:none;}.b{fill:#00478e;}</style></defs><g transform="translate(-325 -4213)"><rect class="a" width="30" height="30" transform="translate(325 4213)"/><g transform="translate(328 4213)"><g transform="translate(0)"><path class="b" d="M78.444,10.034l-4.8-4.991v4.991h4.8Z" transform="translate(-53.555 -5.029)"/><path class="b" d="M36.042,10.9a.81.81,0,0,1-.11.017h-4.8A.9.9,0,0,1,30.245,10V5.014c0-.005,0-.009,0-.014H11.926a.9.9,0,0,0-.883.917V34.083a.9.9,0,0,0,.883.917H35.16a.9.9,0,0,0,.883-.917V10.9ZM29.336,29.5H17.309a.918.918,0,0,1,0-1.834H29.337a.918.918,0,0,1,0,1.834Zm0-4.6H17.309a.918.918,0,0,1,0-1.834H29.337a.918.918,0,0,1,0,1.834Zm0-4.6H17.309a.918.918,0,0,1,0-1.834H29.337a.918.918,0,0,1,0,1.834Zm0-4.6H17.309a.918.918,0,0,1,0-1.834H29.337a.918.918,0,0,1,0,1.834Z" transform="translate(-11.043 -5)"/></g></g></g></svg>