<svg xmlns="http://www.w3.org/2000/svg" width="50" height="50" viewBox="0 0 50 50"><defs><style>.a{fill:rgba(0,71,142,0.8);}.b{fill:#fff;}</style></defs><g transform="translate(-1016 -2561)"><circle class="a" cx="25" cy="25" r="25" transform="translate(1016 2561)"/><g transform="translate(1004.5 2532.1)"><g transform="translate(19 32)"><path class="b" d="M30.005,8.9H4.995A2.482,2.482,0,0,0,2.5,11.4v21a2.482,2.482,0,0,0,2.495,2.5H30.005A2.482,2.482,0,0,0,32.5,32.4v-21A2.482,2.482,0,0,0,30.005,8.9ZM4.995,10.576H30.005a.816.816,0,0,1,.821.822v4.175H4.174V11.4A.8.8,0,0,1,4.995,10.576ZM30.005,33.224H4.995a.816.816,0,0,1-.821-.822V17.219H30.858V32.4A.843.843,0,0,1,30.005,33.224Z"/><ellipse class="b" cx="1" cy="1.002" rx="1" ry="1.002" transform="translate(5.784 12.095)"/><ellipse class="b" cx="1" cy="1.002" rx="1" ry="1.002" transform="translate(8.816 12.095)"/><ellipse class="b" cx="1" cy="1.002" rx="1" ry="1.002" transform="translate(11.847 12.095)"/><path class="b" d="M55.276,65.961H51.924a.3.3,0,0,1-.324-.3V59.7a.3.3,0,0,1,.324-.3h3.351a.3.3,0,0,1,.324.3v5.92A.342.342,0,0,1,55.276,65.961Z" transform="translate(-41.1 -33.925)"/><path class="b" d="M78.876,63.479H75.524a.3.3,0,0,1-.324-.3V54.8a.3.3,0,0,1,.324-.3h3.351a.3.3,0,0,1,.324.3v8.387A.335.335,0,0,1,78.876,63.479Z" transform="translate(-53.7 -31.442)"/><path class="b" d="M67.076,60.236H63.724a.3.3,0,0,1-.324-.3V48.4a.3.3,0,0,1,.324-.3h3.351a.3.3,0,0,1,.324.3V59.891A.342.342,0,0,1,67.076,60.236Z" transform="translate(-47.9 -28.2)"/></g></g></g></svg>