<svg xmlns="http://www.w3.org/2000/svg" width="50" height="50" viewBox="0 0 50 50"><defs><style>.a{fill:#ffca27;}.b{fill-rule:evenodd;}</style></defs><circle class="a" cx="25" cy="25" r="25"/><path class="b" d="M196.182,507h5.035a1.188,1.188,0,0,1,1.182,1.182v5.035a1.188,1.188,0,0,1-1.182,1.182h-5.035A1.188,1.188,0,0,1,195,513.217v-5.035A1.188,1.188,0,0,1,196.182,507Z" transform="translate(-187.562 -488.639)"/><path class="b" d="M390.182,701h5.035a1.188,1.188,0,0,1,1.182,1.182v5.035a1.188,1.188,0,0,1-1.182,1.182h-5.035A1.188,1.188,0,0,1,389,707.217v-5.035A1.188,1.188,0,0,1,390.182,701Z" transform="translate(-374.631 -675.24)"/><path class="b" d="M584.182,507h5.035a1.188,1.188,0,0,1,1.182,1.182v5.035a1.188,1.188,0,0,1-1.182,1.182h-5.035A1.188,1.188,0,0,1,583,513.217v-5.035A1.188,1.188,0,0,1,584.182,507Z" transform="translate(-561.7 -488.639)"/><path class="b" d="M972.182,507h5.035a1.188,1.188,0,0,1,1.182,1.182v5.035a1.188,1.188,0,0,1-1.182,1.182h-5.035A1.188,1.188,0,0,1,971,513.217v-5.035A1.188,1.188,0,0,1,972.182,507Z" transform="translate(-935.837 -488.639)"/><path class="b" d="M778.183,701h5.035a1.188,1.188,0,0,1,1.182,1.182v5.035a1.188,1.188,0,0,1-1.182,1.182h-5.035A1.188,1.188,0,0,1,777,707.217v-5.035A1.188,1.188,0,0,1,778.183,701Z" transform="translate(-748.768 -675.24)"/></svg>