<svg xmlns="http://www.w3.org/2000/svg" width="30" height="30" viewBox="0 0 30 30"><defs><style>.a{fill:none;}.b{fill:#00478e;}</style></defs><g transform="translate(-1184 -2738)"><rect class="a" width="30" height="30" transform="translate(1184 2738)"/><path class="b" d="M17.847,16.272l4.314-3.541a.861.861,0,0,0-.505-1.53L16.1,10.866a.872.872,0,0,1-.758-.545L13.3,5.125a.872.872,0,0,0-1.62,0L9.64,10.3a.872.872,0,0,1-.758.545l-5.577.335A.861.861,0,0,0,2.8,12.71l4.314,3.52a.88.88,0,0,1,.295.88L6,22.5a.866.866,0,0,0,1.3.943l4.693-3a.828.828,0,0,1,.926,0l4.714,3a.866.866,0,0,0,1.3-.943l-1.41-5.364A.859.859,0,0,1,17.847,16.272Z" transform="translate(1186.52 2738.426)"/></g></svg>