<svg xmlns="http://www.w3.org/2000/svg" width="50" height="50" viewBox="0 0 50 50"><defs><style>.a{fill:#3f4e56;}.b{fill:#fff;fill-rule:evenodd;}</style></defs><g transform="translate(-10735 -5027)"><circle class="a" cx="25" cy="25" r="25" transform="translate(10735 5027)"/><path class="b" d="M511.6,0h8.507a1.491,1.491,0,0,1,1.512,1.457v8.2a1.491,1.491,0,0,1-1.512,1.46H511.6a1.491,1.491,0,0,1-1.512-1.46v-8.2A1.491,1.491,0,0,1,511.6,0ZM484.2,6.745h3.255a.571.571,0,0,1,.578.56V10.44a.571.571,0,0,1-.578.56H484.2a.571.571,0,0,1-.578-.56V7.3A.569.569,0,0,1,484.2,6.745Zm4.784,4.7h4a.7.7,0,0,1,.711.686v3.852a.7.7,0,0,1-.711.686h-4a.7.7,0,0,1-.712-.686V12.139a.7.7,0,0,1,.708-.686Zm6.01-7.925h5.774a1.013,1.013,0,0,1,1.028.991V10.08a1.013,1.013,0,0,1-1.028.991h-5.774a1.013,1.013,0,0,1-1.026-.991V4.519a1.013,1.013,0,0,1,1.022-.991Zm8.1,7.925h5.774a1.012,1.012,0,0,1,1.026.991V18a.961.961,0,0,1-.3.7,1.066,1.066,0,0,1-.734.294h-5.774a1.015,1.015,0,0,1-1.028-.991V12.445a1.015,1.015,0,0,1,1.028-.992Z" transform="translate(10257.378 5043)"/></g></svg>