<svg xmlns="http://www.w3.org/2000/svg" width="99.219" height="25" viewBox="0 0 99.219 25"><defs><style>.a{fill:#eb190e;}.b{fill:#fff;}</style></defs><g transform="translate(0 0.11)"><path class="a" d="M201.174,47a9.073,9.073,0,0,1,6.492,2.675,9.642,9.642,0,0,1,2.682,6.475v6.757a2.294,2.294,0,0,1-2.4,2.393h-6.775a9.15,9.15,0,1,1,0-18.3Zm-.141,14.358h.141a5.132,5.132,0,0,0,3.67-1.548,5.452,5.452,0,0,0,1.553-3.66h0a5.452,5.452,0,0,0-1.553-3.66,5.219,5.219,0,0,0-3.811-1.548,5.132,5.132,0,0,0-3.67,1.548,5.09,5.09,0,0,0,0,7.32,5.132,5.132,0,0,0,3.67,1.548Z" transform="translate(-164.902 -40.409)"/><path class="b" d="M10.3,54.475A3.1,3.1,0,0,0,7.057,51.66a3.092,3.092,0,0,0-3.246,2.675,9.945,9.945,0,0,0-.141,2.112v7.883a1.748,1.748,0,0,1-1.835,1.689A1.748,1.748,0,0,1,0,64.329V55.038C0,50.252,3.1,48,7.057,48a5.4,5.4,0,0,1,5.081,2.675A5.761,5.761,0,0,1,17.36,48c3.952,0,7.057,2.252,7.057,7.038v9.291a1.841,1.841,0,0,1-3.67,0V56.446c0-.422-.141-1.83-.141-2.112A3.092,3.092,0,0,0,17.36,51.66a3.1,3.1,0,0,0-3.246,2.815,5.265,5.265,0,0,0-.141,1.548v8.305a1.669,1.669,0,0,1-1.835,1.689A1.748,1.748,0,0,1,10.3,64.329V56.024a5.663,5.663,0,0,0,0-1.548Z" transform="translate(0 -41.269)"/><path class="b" d="M476,50.689a1.841,1.841,0,0,1,3.669,0v14.5a1.841,1.841,0,0,1-3.669,0Z" transform="translate(-408.819 -42.128)"/><ellipse class="b" cx="2.312" cy="2.306" rx="2.312" ry="2.306" transform="translate(66.439 -0.11)"/><path class="b" d="M341.08,52.413a1.806,1.806,0,0,1,2.823-2.252l4.375,5.349,4.093-5.349a1.963,1.963,0,0,1,2.54-.282,1.691,1.691,0,0,1,.282,2.534l-4.658,5.912,4.8,6.053a1.839,1.839,0,0,1-.282,2.675,1.928,1.928,0,0,1-2.54-.282L348.137,61,343.9,66.771a1.963,1.963,0,0,1-2.54.282,1.991,1.991,0,0,1-.423-2.675l4.8-6.053-4.658-5.912Z" transform="translate(-292.529 -42.585)"/><path class="b" d="M540.3,54.475a3.293,3.293,0,0,0-6.492-.141c0,.422-.141,1.689-.141,2.112v7.883a1.669,1.669,0,0,1-1.835,1.689A1.748,1.748,0,0,1,530,64.329V55.038c0-4.786,3.1-7.038,7.057-7.038a5.761,5.761,0,0,1,5.222,2.675A5.4,5.4,0,0,1,547.36,48c3.952,0,7.057,2.252,7.057,7.038v9.291a1.841,1.841,0,0,1-3.67,0V56.446a9.942,9.942,0,0,0-.141-2.112,3.092,3.092,0,0,0-3.246-2.675,3.191,3.191,0,0,0-3.246,2.815,5.662,5.662,0,0,0,0,1.548v8.305a1.841,1.841,0,0,1-3.669,0V54.475Z" transform="translate(-455.198 -41.269)"/></g></svg>