<svg xmlns="http://www.w3.org/2000/svg" width="154.523" height="20" viewBox="0 0 154.523 20"><defs><style>.a,.b,.c{fill-rule:evenodd;}.b{fill:#f9ea1c;}.c{fill:#fff;}</style></defs><g transform="translate(0.234 -11.17)"><g transform="translate(-0.234 11.17)"><g transform="translate(6.007 9.468)"><path class="a" d="M27.878,47.935a58.4,58.4,0,0,0-4.286,7.18c-.6,1.37-.686,2.35-.107,2.7a4.4,4.4,0,0,0,2.813.121,19.261,19.261,0,0,0,3.935-1.212,21.561,21.561,0,0,0,3.807-2.043,6.182,6.182,0,0,0,2.3-2.327c.3-.753-.335-1.427-1.58-2.017C33.242,49.621,30.749,48.9,27.878,47.935Z" transform="translate(-23.092 -47.935)"/><path class="b" d="M30.75,56.508A52.886,52.886,0,0,0,26.76,62.3c-.622,1.167-.778,2.008-.287,2.308A4,4,0,0,0,29,64.666a19.137,19.137,0,0,0,3.659-1.147A21.232,21.232,0,0,0,36.2,61.652a5.516,5.516,0,0,0,2.083-2.03c.25-.634-.355-1.152-1.506-1.569C35.4,57.555,33.2,57.108,30.75,56.508Z" transform="translate(-25.387 -54.3)"/><path class="a" d="M36.285,70.445a12.562,12.562,0,0,0-3.3,1.945c-.642.576-.849,1.049-.536,1.306a2.579,2.579,0,0,0,1.8.091,14.13,14.13,0,0,0,2.818-.876,15.387,15.387,0,0,0,2.7-1.436,3.4,3.4,0,0,0,1.406-1.461c.109-.446-.338-.653-1.194-.6A12.228,12.228,0,0,0,36.285,70.445Z" transform="translate(-29.934 -63.877)"/></g><g transform="translate(4.39 0)"><path class="a" d="M22.728,19.925a45.931,45.931,0,0,1-4.686-3.453c-.817-.745-1.278-1.414-1.228-1.9a1.73,1.73,0,0,1,.95-1.2,5.613,5.613,0,0,1,1.936-.693,7.2,7.2,0,0,1,2.256-.046,3.312,3.312,0,0,1,1.844.757,2.221,2.221,0,0,1,.324,2.076C23.9,16.585,23.327,18.093,22.728,19.925Z" transform="translate(-16.811 -12.204)"/><path class="b" d="M22.139,17.077A37.64,37.64,0,0,1,18.168,14.5c-.735-.591-1.16-1.132-1.117-1.543a1.53,1.53,0,0,1,.877-1.045,5.573,5.573,0,0,1,1.809-.629,7,7,0,0,1,2.083-.066,2.871,2.871,0,0,1,1.635.63c.368.355.38.968.153,1.724C23.336,14.479,22.749,15.672,22.139,17.077Z" transform="translate(-16.987 -11.17)"/><path class="a" d="M22.674,14.177a4.431,4.431,0,0,1-2.031-.087c-.482-.159-.764-.416-.766-.724,0-.281.235-.557.6-.781a4.111,4.111,0,0,1,1.39-.49,5.1,5.1,0,0,1,1.594-.041,1.883,1.883,0,0,1,1.143.49c.235.277.167.6-.162.9A3.571,3.571,0,0,1,22.674,14.177Z" transform="translate(-19.087 -11.793)"/></g><g transform="translate(0 3.763)"><path class="a" d="M10.543,31.073a58.45,58.45,0,0,1-4.03,7.336c-.88,1.217-1.688,1.793-2.295,1.484a4.307,4.307,0,0,1-1.555-2.326A18.734,18.734,0,0,1,1.689,33.6,21.074,21.074,0,0,1,1.5,29.32a6.108,6.108,0,0,1,.836-3.153c.5-.641,1.412-.451,2.567.3C6.315,27.388,8.227,29.133,10.543,31.073Z" transform="translate(-1.027 -25.779)"/><path class="b" d="M7.066,34.207a52.73,52.73,0,0,1-2.978,6.372c-.694,1.129-1.344,1.694-1.858,1.433A3.91,3.91,0,0,1,.879,39.894a18.617,18.617,0,0,1-.888-3.7,20.678,20.678,0,0,1-.2-3.966,5.441,5.441,0,0,1,.691-2.813c.422-.539,1.184-.292,2.139.471C3.763,30.8,5.282,32.436,7.066,34.207Z" transform="translate(0.234 -28.267)"/><path class="a" d="M3.6,41.323a12.247,12.247,0,0,1,.009,3.8c-.17.842-.474,1.261-.859,1.128-.349-.122-.707-.69-1.007-1.482a13.805,13.805,0,0,1-.69-2.844A15.021,15.021,0,0,1,.91,38.9a3.356,3.356,0,0,1,.545-1.945c.331-.322.741-.05,1.136.7A11.858,11.858,0,0,1,3.6,41.323Z" transform="translate(-0.597 -33.975)"/></g><g transform="translate(11.361 1.24)"><path class="a" d="M43.878,23.042a47.2,47.2,0,0,0,6.151,2.608c1.152.33,1.941.3,2.165-.19a3.376,3.376,0,0,0-.188-2.2,14.931,14.931,0,0,0-1.363-2.939,16.906,16.906,0,0,0-2.012-2.755,4.947,4.947,0,0,0-2.087-1.556c-.63-.156-1.1.405-1.447,1.434C44.677,18.7,44.355,20.711,43.878,23.042Z" transform="translate(-43.878 -15.983)"/><path class="b" d="M50.478,22.922A42.73,42.73,0,0,0,55.5,25.44c.993.366,1.677.4,1.867-.01a3.068,3.068,0,0,0-.212-1.973,14.8,14.8,0,0,0-1.284-2.73,16.514,16.514,0,0,0-1.845-2.565A4.4,4.4,0,0,0,52.2,16.748c-.53-.131-.881.393-1.1,1.331C50.841,19.2,50.708,20.955,50.478,22.922Z" transform="translate(-48.778 -16.536)"/><path class="a" d="M59.984,25.232A9.848,9.848,0,0,0,61.867,27.6c.523.441.922.554,1.094.285a1.979,1.979,0,0,0-.109-1.411,10.979,10.979,0,0,0-.983-2.1,12.042,12.042,0,0,0-1.417-1.955,2.717,2.717,0,0,0-1.305-.946c-.366-.039-.486.329-.357.99A9.441,9.441,0,0,0,59.984,25.232Z" transform="translate(-54.912 -20.055)"/></g></g><path class="c" d="M99.666,32.893q-5.784,0-9.083-2.425a7.8,7.8,0,0,1-3.3-6.648,7.833,7.833,0,0,1,3.287-6.672q3.288-2.423,9.1-2.425t9.1,2.429a7.827,7.827,0,0,1,3.3,6.668,7.814,7.814,0,0,1-3.282,6.636q-3.287,2.435-9.123,2.436Zm.017-15.416a6.77,6.77,0,0,0-4.791,1.655,6.086,6.086,0,0,0-1.779,4.689,6.041,6.041,0,0,0,1.779,4.669,7.744,7.744,0,0,0,9.564-.012,6.069,6.069,0,0,0,1.784-4.669,6.088,6.088,0,0,0-1.773-4.677,6.737,6.737,0,0,0-4.785-1.655ZM141.71,32.522h-5.479V20.265L130.769,28.4h-3.683l-5.462-8.1V32.522h-5.146V15.082H122.7l6.409,9.271,6.386-9.271h6.219v17.44Zm23.667,0H147.723V15.082h17.654v2.892H153.237V21.7h11.28v2.88h-11.28V29.63h12.141v2.892Zm26.22-1.075a35.422,35.422,0,0,1-9.633,1.445q-6.283,0-9.822-2.4a7.651,7.651,0,0,1-3.54-6.711,7.582,7.582,0,0,1,3.626-6.6q3.614-2.441,9.875-2.441a30.251,30.251,0,0,1,9.427,1.54v3.539h-.585a21.418,21.418,0,0,0-4.86-1.94,17.12,17.12,0,0,0-3.632-.411,9.394,9.394,0,0,0-5.858,1.663,5.446,5.446,0,0,0-2.157,4.574,5.656,5.656,0,0,0,2.226,4.835q2.229,1.659,6.461,1.659a15.132,15.132,0,0,0,3.046-.288V25.949H180.5V23.172h11.1v8.275Zm27.666,1.075h-5.87l-1.916-3.784h-9.966L199.6,32.522h-5.611l9.564-17.44H209.7l9.564,17.44Zm-9.18-6.494-3.58-7.035-3.58,7.035Z" transform="translate(-64.975 -2.638)"/></g></svg>