<svg xmlns="http://www.w3.org/2000/svg" width="87.973" height="28" viewBox="0 0 87.973 28"><defs><style>.a{fill:#fff;stroke:#2b2a29;stroke-width:3px;fill-rule:evenodd;}.b{fill:#2b2a29;}</style></defs><g transform="translate(-22.852 -16.5)"><path class="a" d="M74.507,18H101.8l7.288,11.847L101.8,43H25l4.559-12.573L25,18Z"/><path class="b" d="M2450,156.289l.261-2.15h2.41l-.291,2.15Zm.609-3.63,1.48-12.66h2.381l-1.859,12.66Z" transform="translate(-2354.587 -118.458)"/><path class="b" d="M2135.155,249.807l-4.094,7.462H2129L2130.74,244h2.439l-1.046,7.462L2136.17,244h2.12l-1.742,13.27h-2.41Z" transform="translate(-2042.908 -219.438)"/><path class="b" d="M1802.25,255.15l1.684-9.727a1.684,1.684,0,0,1,1.887-1.423h4.762l-1.742,13.27h-2.41l1.481-11.121h-1.8l-1.684,9.727a1.728,1.728,0,0,1-1.917,1.393H1801V255.15Z" transform="translate(-1724.432 -219.438)"/><path class="b" d="M1504.485,252.885l-.058-6.766-1.742,6.766Zm.029,4.385-.029-2.294h-2.323l-.668,2.294H1499l3.835-13.27h3.891l.261,13.27Z" transform="translate(-1431.201 -219.438)"/><path class="b" d="M1196.37,251.3l-1.481-6.3h2.468l.958,4.471,2-4.471h2.672l-3.4,6.852,1.6,6.388-2.468.029-.929-4.471-2.177,4.471H1193Z" transform="translate(-1134.086 -220.409)"/><path class="b" d="M960.7,256.121h3.688l-.29,2.15H958L959.771,245h5.923l-.29,2.12h-3.543l-.435,3.339h2.5l-.29,2.061h-2.468Z" transform="translate(-905.909 -220.409)"/><path class="b" d="M669.107,256.146l2.177-.029,1.191-8.972H670.3Zm-2.5.726,1.365-10.453a1.865,1.865,0,0,1,1.8-1.423h3.8a1.3,1.3,0,0,1,1.393,1.423l-1.365,10.453a1.777,1.777,0,0,1-1.771,1.393H668a1.3,1.3,0,0,1-1.393-1.394Z" transform="translate(-622.969 -220.405)"/><path class="b" d="M369.234,141l-2.15,16.289h-2.41l1.858-14.141H364.3l-1.888,14.141H360l2.177-16.26Z" transform="translate(-325.273 -119.428)"/></g></svg>